<svg width="800" height="500" viewBox="0 0 800 500" fill="none" xmlns="http://www.w3.org/2000/svg">
  <!-- Background -->
  <rect width="800" height="500" fill="#F4F5F7"/>
  
  <!-- Sidebar -->
  <rect x="0" y="0" width="180" height="500" fill="#EAEBEE" rx="0"/>
  <rect x="16" y="20" width="40" height="12" rx="6" fill="#D7D9DE"/>
  <rect x="16" y="48" width="120" height="8" rx="4" fill="#D7D9DE"/>
  <rect x="16" y="68" width="100" height="8" rx="4" fill="#C8CBD0"/>
  
  <!-- Sidebar navigation items -->
  <rect x="16" y="100" width="148" height="32" rx="8" fill="#5C7095" opacity="0.1"/>
  <rect x="28" y="110" width="8" height="8" rx="2" fill="#5C7095"/>
  <rect x="44" y="109" width="70" height="6" rx="3" fill="#5C7095" opacity="0.6"/>
  
  <rect x="16" y="144" width="148" height="32" rx="8" fill="transparent"/>
  <rect x="28" y="154" width="8" height="8" rx="2" fill="#C8CBD0"/>
  <rect x="44" y="153" width="80" height="6" rx="3" fill="#C8CBD0"/>
  
  <rect x="16" y="188" width="148" height="32" rx="8" fill="transparent"/>
  <rect x="28" y="198" width="8" height="8" rx="2" fill="#C8CBD0"/>
  <rect x="44" y="197" width="60" height="6" rx="3" fill="#C8CBD0"/>
  
  <rect x="16" y="232" width="148" height="32" rx="8" fill="transparent"/>
  <rect x="28" y="242" width="8" height="8" rx="2" fill="#C8CBD0"/>
  <rect x="44" y="241" width="90" height="6" rx="3" fill="#C8CBD0"/>
  
  <!-- Main Content Area -->
  <!-- Header bar -->
  <rect x="200" y="16" width="584" height="1" rx="0.5" fill="#D7D9DE"/>
  <rect x="200" y="32" width="100" height="10" rx="5" fill="#1E2430" opacity="0.7"/>
  <rect x="200" y="48" width="160" height="6" rx="3" fill="#C8CBD0"/>
  
  <!-- Component showcase grid -->
  <rect x="200" y="72" width="180" height="130" rx="12" fill="#FFFFFF" stroke="#D7D9DE" stroke-width="1"/>
  <rect x="216" y="88" width="148" height="8" rx="4" fill="#1E2430" opacity="0.5"/>
  <rect x="216" y="104" width="80" height="6" rx="3" fill="#C8CBD0"/>
  <rect x="216" y="124" width="120" height="32" rx="8" fill="#5C7095" opacity="0.15"/>
  <rect x="228" y="134" width="40" height="6" rx="3" fill="#5C7095" opacity="0.5"/>
  <rect x="276" y="134" width="40" height="6" rx="3" fill="#5C7095" opacity="0.3"/>
  <rect x="216" y="168" width="100" height="20" rx="10" fill="#EAEBEE"/>
  <rect x="228" y="175" width="30" height="4" rx="2" fill="#C8CBD0"/>
  
  <rect x="392" y="72" width="180" height="130" rx="12" fill="#FFFFFF" stroke="#D7D9DE" stroke-width="1"/>
  <rect x="408" y="88" width="148" height="8" rx="4" fill="#1E2430" opacity="0.5"/>
  <rect x="408" y="104" width="60" height="6" rx="3" fill="#C8CBD0"/>
  <!-- Color swatches -->
  <rect x="408" y="120" width="24" height="24" rx="6" fill="#5C7095"/>
  <rect x="440" y="120" width="24" height="24" rx="6" fill="#EAEBEE"/>
  <rect x="472" y="120" width="24" height="24" rx="6" fill="#1E2430"/>
  <rect x="504" y="120" width="24" height="24" rx="6" fill="#D7D9DE"/>
  <rect x="408" y="156" width="50" height="14" rx="7" fill="#34C749" opacity="0.15"/>
  <rect x="414" y="160" width="16" height="4" rx="2" fill="#34C749"/>
  <rect x="436" y="160" width="16" height="4" rx="2" fill="#34C749" opacity="0.5"/>
  
  <rect x="584" y="72" width="180" height="130" rx="12" fill="#FFFFFF" stroke="#D7D9DE" stroke-width="1"/>
  <rect x="600" y="88" width="148" height="8" rx="4" fill="#1E2430" opacity="0.5"/>
  <rect x="600" y="104" width="70" height="6" rx="3" fill="#C8CBD0"/>
  <!-- Typography showcase -->
  <rect x="600" y="120" width="100" height="8" rx="4" fill="#1E2430" opacity="0.6"/>
  <rect x="600" y="134" width="80" height="6" rx="3" fill="#C8CBD0"/>
  <rect x="600" y="146" width="60" height="5" rx="2.5" fill="#C8CBD0" opacity="0.6"/>
  <rect x="600" y="166" width="100" height="24" rx="6" fill="#EAEBEE"/>
  <rect x="612" y="174" width="40" height="4" rx="2" fill="#C8CBD0"/>
  
  <!-- Bottom section - component list -->
  <rect x="200" y="216" width="564" height="1" rx="0.5" fill="#D7D9DE"/>
  <rect x="200" y="234" width="120" height="8" rx="4" fill="#1E2430" opacity="0.5"/>
  
  <!-- Component row previews -->
  <rect x="200" y="252" width="180" height="40" rx="10" fill="#FFFFFF" stroke="#D7D9DE" stroke-width="1"/>
  <rect x="212" y="260" width="12" height="12" rx="3" fill="#5C7095" opacity="0.3"/>
  <rect x="232" y="263" width="70" height="6" rx="3" fill="#C8CBD0"/>
  <rect x="330" y="260" width="30" height="12" rx="6" fill="#EAEBEE"/>
  
  <rect x="392" y="252" width="180" height="40" rx="10" fill="#FFFFFF" stroke="#D7D9DE" stroke-width="1"/>
  <rect x="404" y="260" width="12" height="12" rx="6" fill="#5C7095" opacity="0.3"/>
  <rect x="424" y="263" width="80" height="6" rx="3" fill="#C8CBD0"/>
  <rect x="530" y="260" width="24" height="12" rx="3" fill="#EAEBEE"/>
  
  <rect x="584" y="252" width="180" height="40" rx="10" fill="#FFFFFF" stroke="#D7D9DE" stroke-width="1"/>
  <rect x="596" y="260" width="12" height="12" rx="3" fill="#5C7095" opacity="0.3"/>
  <rect x="616" y="263" width="60" height="6" rx="3" fill="#C8CBD0"/>
  <rect x="720" y="260" width="28" height="12" rx="6" fill="#EAEBEE"/>
  
  <!-- Bottom component rows -->
  <rect x="200" y="304" width="564" height="40" rx="10" fill="#FFFFFF" stroke="#D7D9DE" stroke-width="1"/>
  <rect x="212" y="312" width="12" height="12" rx="3" fill="#5C7095" opacity="0.3"/>
  <rect x="232" y="315" width="90" height="6" rx="3" fill="#C8CBD0"/>
  <rect x="340" y="315" width="60" height="6" rx="3" fill="#C8CBD0" opacity="0.6"/>
  <rect x="700" y="312" width="48" height="12" rx="6" fill="#5C7095" opacity="0.15"/>
  <rect x="708" y="315" width="16" height="4" rx="2" fill="#5C7095"/>
  
  <rect x="200" y="356" width="564" height="40" rx="10" fill="#FFFFFF" stroke="#D7D9DE" stroke-width="1"/>
  <rect x="212" y="364" width="12" height="12" rx="3" fill="#5C7095" opacity="0.3"/>
  <rect x="232" y="367" width="110" height="6" rx="3" fill="#C8CBD0"/>
  <rect x="700" y="364" width="48" height="12" rx="6" fill="#EAEBEE"/>
  
  <rect x="200" y="408" width="564" height="40" rx="10" fill="#FFFFFF" stroke="#D7D9DE" stroke-width="1"/>
  <rect x="212" y="416" width="12" height="12" rx="3" fill="#5C7095" opacity="0.3"/>
  <rect x="232" y="419" width="70" height="6" rx="3" fill="#C8CBD0"/>
  
  <!-- Tag badges -->
  <circle cx="216" cy="464" r="4" fill="#34C749" opacity="0.5"/>
  <rect x="228" y="459" width="50" height="6" rx="3" fill="#C8CBD0"/>
</svg>
